<svg width="115" height="98" viewBox="0 0 115 98" fill="none" xmlns="http://www.w3.org/2000/svg">
<mask id="mask0_2035_446" style="mask-type:luminance" maskUnits="userSpaceOnUse" x="0" y="0" width="115" height="98">
<path d="M115 0H0V98H115V0Z" fill="white"/>
</mask>
<g mask="url(#mask0_2035_446)">
<path d="M115 0H0V98H115V0Z" fill="white"/>
<path d="M29.4337 32.3897C32.4351 33.9043 34.2052 36.2712 34.7026 39.4598C35.0296 41.5558 34.5204 43.57 33.6528 45.5007C32.814 47.3672 31.6465 49.0251 30.2994 50.5742C30.0687 50.8395 29.8598 50.9292 29.4885 50.8088C28.8428 50.5995 28.1558 50.6729 27.4837 50.6717C25.9865 50.669 24.4892 50.6666 22.9919 50.6748C22.6963 50.6764 22.4795 50.5986 22.2473 50.3956C21.3326 49.5952 20.1733 49.357 19.006 49.1632C18.7988 49.1288 18.6126 49.1102 18.4737 48.9221C16.898 46.7881 15.5673 44.5173 15.2689 41.8711C14.8293 37.9729 16.3627 34.8757 19.7983 32.8058C22.8747 30.9522 26.1201 30.93 29.4337 32.3897ZM20.5976 39.178C20.1803 40.7869 20.6206 42.2038 21.6979 43.4308C22.5827 44.4389 23.5856 45.3418 24.5798 46.2498C24.8583 46.5042 25.0597 46.4952 25.3286 46.2462C26.3428 45.3069 27.3831 44.3921 28.3031 43.3637C29.3547 42.1886 29.843 40.8259 29.4353 39.2836C28.9102 37.2969 27.206 36.0562 25.0751 36.0159C22.9761 35.9763 21.2868 37.1441 20.5976 39.178Z" fill="#2196F3"/>
<path d="M32.8685 53.1734C32.9927 52.4111 33.368 52.0856 34.0161 52.1304C34.6051 52.1713 34.9626 52.5875 34.9642 53.2614C34.9685 55.1339 34.9694 57.0065 34.9636 58.8791C34.9613 59.6022 34.5578 60.0513 33.9338 60.0562C33.2689 60.0613 32.8882 59.6242 32.8637 58.8631C32.8485 58.3957 33.069 57.803 32.762 57.4944C32.451 57.1821 31.8376 57.3987 31.3593 57.3976C27.0176 57.3879 22.6759 57.3928 18.3342 57.3947C17.0063 57.3954 17.0026 57.3974 16.9971 58.6798C16.996 58.9566 16.9746 59.2275 16.8556 59.4785C16.6624 59.8863 16.3137 60.0626 15.8616 60.0549C15.4292 60.0475 15.105 59.8637 14.9331 59.4703C14.8305 59.2352 14.7871 58.9876 14.7876 58.7272C14.7917 55.8729 14.7865 53.0186 14.7917 50.1642C14.7927 49.6799 14.8679 49.2063 15.385 48.9613C16.1745 48.5871 16.9608 49.0964 16.9853 50.0279C17.0137 51.0998 16.991 52.173 16.9932 53.2456C16.995 54.306 16.8966 54.1939 17.9426 54.1948C22.5837 54.1988 27.2248 54.1961 31.8659 54.1959C32.8642 54.1959 32.8642 54.1958 32.8685 53.1734ZM42.8415 49.8502C42.3154 49.694 41.8272 49.5689 41.3509 49.4102C38.6895 48.5239 38.9096 45.3217 40.4135 44.0567C42.0512 42.6793 45.1603 42.82 46.6157 44.3717C47.0462 44.8307 47.2671 45.3833 47.4041 45.9744C47.4708 46.2596 47.3733 46.4311 47.0357 46.4223C46.6805 46.413 46.3236 46.4052 45.9691 46.4255C45.6307 46.4449 45.4329 46.3286 45.2616 46.0281C44.7018 45.0465 43.4981 44.6842 42.4452 45.1417C41.8343 45.4072 41.4685 45.9419 41.4816 46.5544C41.4956 47.2061 41.9299 47.5429 42.4935 47.7158C43.3649 47.9829 44.2627 48.1686 45.1328 48.4389C46.244 48.7843 47.1755 49.3661 47.5421 50.5271C48.0178 52.0324 47.3407 53.6705 45.8486 54.4202C44.1378 55.2798 42.3829 55.2728 40.7079 54.3173C39.6432 53.7099 39.0758 52.7573 39.0169 51.4715C39.6415 51.4715 40.2354 51.479 40.8288 51.4682C41.1136 51.4631 41.145 51.6785 41.2283 51.8511C41.885 53.2113 43.5468 53.6665 44.8198 52.8281C45.3206 52.4981 45.5904 52.036 45.5501 51.4422C45.5108 50.8642 45.1182 50.5427 44.609 50.3265C44.0574 50.092 43.4671 49.9931 42.8415 49.8502ZM88.4936 53.3476C87.8216 54.1671 87.0492 54.7548 85.9908 54.9416C84.9282 55.129 83.9953 54.8976 83.1673 54.2336C83.0955 54.1764 83.0219 54.1211 82.9465 54.0678C82.9331 54.0582 82.9111 54.0597 82.8609 54.0497C82.7643 54.2476 82.8007 54.4653 82.7993 54.6734C82.7938 55.6543 82.7832 56.6355 82.8021 57.616C82.8099 58.0248 82.6898 58.2321 82.2312 58.1934C81.9161 58.1669 81.595 58.1757 81.2785 58.1952C80.8797 58.2198 80.7063 58.082 80.7077 57.6695C80.7183 54.0912 80.7169 50.5126 80.71 46.9341C80.709 46.5913 80.8213 46.4246 81.1925 46.4524C81.4156 46.4691 81.641 46.4538 81.8655 46.4539C82.7147 46.4543 82.7147 46.4545 82.8619 47.2144C82.9129 47.2008 82.9778 47.2029 83.01 47.1724C85.0413 45.2272 88.4605 46.5126 89.1459 49.1484C89.5254 50.608 89.4445 52.0286 88.4936 53.3476ZM82.8365 49.6842C82.7036 50.2735 82.6585 50.8617 82.8094 51.4575C83.0206 52.2939 83.504 52.9291 84.361 53.1631C85.1982 53.3918 85.9853 53.2222 86.6132 52.5674C87.2484 51.9052 87.3929 51.1033 87.3271 50.2463C87.2369 49.0716 86.3767 48.1964 85.2092 48.0635C84.1572 47.9437 83.2662 48.5289 82.8365 49.6842ZM75.4434 55.0167C74.1858 55.0099 73.045 54.7789 72.1057 53.9888C71.3356 53.3407 70.9465 52.5069 70.9143 51.4401C71.5734 51.4401 72.1834 51.4327 72.7929 51.444C73.0105 51.4479 73.0257 51.6493 73.08 51.7995C73.6655 53.4052 75.7535 53.5478 76.8354 52.7463C77.7425 52.0746 77.6427 50.8864 76.6353 50.3758C76.0148 50.0615 75.3165 49.9885 74.6532 49.8071C74.3118 49.714 73.9636 49.6431 73.6278 49.5341C71.6884 48.904 71.1167 47.839 71.2514 46.3123C71.412 44.4885 72.6618 43.3413 74.4581 43.1741C75.8225 43.047 77.104 43.1889 78.2025 44.0793C78.8042 44.5671 79.1262 45.2069 79.2909 45.9358C79.3603 46.2438 79.2886 46.4372 78.9132 46.4202C78.7081 46.4109 78.5006 46.406 78.2959 46.4215C77.7503 46.4625 77.3639 46.3879 77.0415 45.8148C76.5028 44.8568 74.8477 44.6713 73.959 45.356C73.0459 46.0595 73.2065 47.2293 74.2773 47.6599C74.919 47.9181 75.6063 48.0194 76.2719 48.1964C76.8138 48.3405 77.3414 48.5173 77.8478 48.7567C80.198 49.8676 79.9133 52.7494 78.3861 53.9626C77.5406 54.6341 76.5576 54.9217 75.4434 55.0167ZM56.318 46.6203C57.2053 46.268 58.0683 46.1392 58.9846 46.3147C60.9534 46.692 61.6871 47.862 61.792 49.6011C61.8868 51.1769 61.7409 52.7608 61.8693 54.3387C61.8987 54.6987 61.7331 54.8311 61.3762 54.812C61.0776 54.796 60.7759 54.7869 60.4792 54.8146C59.9902 54.8602 59.6599 54.7487 59.7266 54.0727C59.0016 54.549 58.3254 54.9403 57.5324 54.9902C55.5627 55.1146 53.7958 53.9433 54.3299 51.7139C54.6165 50.5174 55.622 50.1367 56.7141 49.9552C57.6304 49.8027 58.561 49.7315 59.4851 49.6201C59.5721 49.6097 59.6548 49.5689 59.7317 49.5444C59.7096 48.6436 59.3512 48.1938 58.5232 47.9988C57.7638 47.8199 56.9924 48.1062 56.6557 48.7524C56.4947 49.0622 56.3005 49.1784 55.9601 49.1503C55.4803 49.1109 54.9923 49.2055 54.4522 49.0693C54.6344 47.9343 55.2329 47.1334 56.318 46.6203ZM57.7679 51.3028C57.4726 51.3372 57.1695 51.302 56.8852 51.4273C56.272 51.6975 56.1124 52.3911 56.5577 52.8748C57.0264 53.3837 58.0858 53.4781 58.8029 53.0748C59.5748 52.6402 59.8839 51.964 59.6374 51.1772C59.055 51.214 58.4611 51.2515 57.7679 51.3028ZM68.1892 52.6045C67.5406 54.2348 66.8934 55.8205 66.2825 57.4192C66.1206 57.8431 65.897 58.0395 65.4223 57.9899C64.9669 57.9422 64.4991 58.0333 63.9572 57.9107C64.2852 57.0336 64.5456 56.1823 64.9214 55.3821C65.2144 54.7578 65.133 54.2352 64.874 53.6303C63.9066 51.3679 62.9875 49.0858 62.0505 46.811C62.0027 46.6947 61.9272 46.5823 62.0294 46.3713C62.6159 46.3713 63.2424 46.3613 63.868 46.3759C64.1601 46.3827 64.1854 46.653 64.2599 46.8472C64.869 48.427 65.4697 50.0097 66.0755 51.5907C66.139 51.7565 66.2158 51.9173 66.3387 52.2002L67.9095 47.8885C67.9344 47.8199 67.9611 47.7521 67.9855 47.6835C68.4832 46.2835 68.9717 46.0441 70.5987 46.4798C69.7983 48.5134 69.0011 50.5391 68.1892 52.6045ZM98.8652 54.1927C98.2856 53.5318 98.2833 52.7519 98.2585 51.9962C98.2231 50.944 98.236 49.8895 98.2548 48.8365C98.2622 48.4323 98.1569 48.2425 97.6932 48.25C96.9052 48.2624 96.9047 48.2372 96.9038 47.4626C96.9038 47.3173 96.9167 47.1706 96.9006 47.027C96.8537 46.6108 97.0156 46.4418 97.4664 46.4474C98.2401 46.4568 98.2406 46.4335 98.2461 45.6594C98.2558 44.3709 98.2562 44.3935 99.5939 44.368C100.14 44.3576 100.35 44.4869 100.334 45.061C100.297 46.4314 100.327 46.4501 101.711 46.4459C102.187 46.4444 102.32 46.6138 102.316 47.0511C102.301 48.5337 102.37 48.236 101.105 48.2583C100.319 48.2722 100.318 48.2614 100.319 49.0439C100.319 50.0427 100.316 51.0417 100.323 52.0405C100.329 52.9653 100.74 53.3693 101.671 53.2544C102.257 53.1821 102.381 53.3795 102.356 53.8918C102.302 55.0363 102.562 54.8867 101.26 55.0004C100.393 55.0761 99.5502 54.8591 98.8652 54.1927ZM49.3748 50.4178C49.3743 49.873 49.3499 49.3813 49.3807 48.893C49.4097 48.4304 49.2579 48.2223 48.751 48.2506C48.4989 48.2647 48.0997 48.4096 48.0104 48.0702C47.883 47.5851 47.848 47.0509 48.0403 46.5752C48.1337 46.3428 48.4856 46.4469 48.7138 46.4633C49.2096 46.4988 49.3922 46.2874 49.3752 45.8283C49.3587 45.3774 49.3716 44.9256 49.3716 44.4331C49.959 44.3344 50.5142 44.385 51.0666 44.3908C51.3238 44.3935 51.3574 44.573 51.3583 44.7685C51.3601 45.1135 51.3942 45.4619 51.3551 45.8026C51.292 46.3475 51.5354 46.5303 52.0575 46.4561C52.0759 46.4534 52.0952 46.4557 52.1136 46.4558C53.4692 46.4596 53.576 46.5894 53.3828 47.9181C53.3455 48.1748 53.2213 48.26 52.9803 48.2588C52.644 48.257 52.3059 48.2834 51.9719 48.2572C51.5188 48.2221 51.3394 48.3721 51.3532 48.8373C51.3836 49.8532 51.3588 50.8706 51.3638 51.8873C51.3689 52.927 51.8661 53.3285 52.9338 53.1688C53.0414 53.1526 53.1518 53.1513 53.305 53.14C53.449 53.6319 53.3722 54.1183 53.3694 54.5977C53.368 54.8258 53.1799 54.9089 52.9839 54.9127C52.4807 54.9223 51.965 54.9744 51.4747 54.8936C50.0754 54.6635 49.3817 53.8194 49.3757 52.4332C49.3725 51.7796 49.3748 51.1259 49.3748 50.4178ZM90.3879 43.3012C90.9376 43.131 91.4616 43.2198 91.9814 43.2104C92.21 43.2062 92.3185 43.3383 92.3254 43.554C92.3291 43.6811 92.3328 43.8082 92.3328 43.9354C92.3323 47.3325 92.3227 50.7297 92.3406 54.1268C92.3434 54.6402 92.1939 54.8335 91.6437 54.816C90.0972 54.7671 90.2968 55.0074 90.295 53.5207C90.2913 50.3598 90.2922 47.1988 90.295 44.0379C90.295 43.8042 90.2527 43.5647 90.3879 43.3012ZM93.9617 50.8541C93.9617 49.5101 93.9745 48.2204 93.9552 46.9312C93.9492 46.5148 94.0822 46.3577 94.5288 46.3524C95.9456 46.3354 95.9456 46.3202 95.9465 47.6722C95.9475 49.8152 95.9332 51.9584 95.9599 54.1012C95.9663 54.6276 95.8476 54.8437 95.2506 54.8193C93.7491 54.7578 93.9819 54.993 93.9639 53.5784C93.9529 52.6885 93.9617 51.7985 93.9617 50.8541Z" fill="#19386D"/>
<path d="M21.3743 52.5023C21.3474 53.4498 21.0686 53.7258 20.1696 53.7313C19.6289 53.7345 19.087 53.7494 18.5476 53.7224C17.822 53.6861 17.5717 53.3281 17.593 52.4248C17.6092 51.7488 17.8834 51.4803 18.5884 51.4705C19.1477 51.4628 19.7073 51.4641 20.2667 51.4705C21.049 51.4794 21.2797 51.6882 21.3743 52.5023ZM95.835 43.3962C96.2485 43.9733 96.2954 44.5656 95.9757 44.9932C95.6579 45.4176 95.2052 45.5628 94.6937 45.4744C93.9186 45.3402 93.4926 44.6842 93.6973 43.9932C93.9154 43.2574 94.6178 42.8929 95.3584 43.1424C95.5139 43.195 95.6542 43.2903 95.835 43.3962Z" fill="#19386D"/>
<path d="M26.5491 39.8476C26.7931 40.7619 26.4903 41.5387 25.7754 41.9064C25.1327 42.237 24.2655 42.0813 23.7725 41.5471C23.2268 40.9559 23.2026 40.1055 23.6507 39.4274C24.2378 38.5392 26.0934 38.5463 26.5491 39.8476Z" fill="#2196F3"/>
</g>
</svg>
