<svg width="186" height="41" viewBox="0 0 186 41" fill="none" xmlns="http://www.w3.org/2000/svg">
<g clip-path="url(#clip0_2052_2125)">
<mask id="mask0_2052_2125" style="mask-type:luminance" maskUnits="userSpaceOnUse" x="-26" y="-42" width="231" height="134">
<path d="M205 -42H-26V92H205V-42Z" fill="white"/>
</mask>
<g mask="url(#mask0_2052_2125)">
<path d="M205 -42H-26V92H205V-42Z" fill="white"/>
<path d="M33.1234 2.28802C39.1522 4.35894 42.7078 7.5954 43.7069 11.9553C44.3638 14.8212 43.3409 17.5754 41.5982 20.2153C39.9133 22.7674 37.5681 25.0343 34.8621 27.1525C34.3989 27.5152 33.9793 27.6379 33.2334 27.4733C31.9363 27.1872 30.5564 27.2874 29.2062 27.2858C26.1988 27.2821 23.1913 27.2789 20.1838 27.2901C19.59 27.2923 19.1544 27.1859 18.6881 26.9084C16.8507 25.8139 14.5219 25.4882 12.1773 25.2232C11.761 25.1762 11.387 25.1507 11.108 24.8936C7.94298 21.9756 5.26984 18.8707 4.67045 15.2523C3.78747 9.92218 6.86762 5.68724 13.7688 2.85689C19.9482 0.322417 26.4672 0.292045 33.1234 2.28802ZM15.3742 11.57C14.536 13.7699 15.4205 15.7072 17.5844 17.385C19.3617 18.7634 21.3762 19.9981 23.3733 21.2395C23.9328 21.5874 24.3372 21.5752 24.8775 21.2346C26.9145 19.9503 29.0044 18.6994 30.8524 17.2933C32.9645 15.6865 33.9454 13.8232 33.1265 11.7144C32.0717 8.99785 28.6484 7.30132 24.3682 7.24629C20.152 7.19215 16.7587 8.78899 15.3742 11.57Z" fill="#2196F3"/>
<path d="M40.0225 30.7064C40.2718 29.6641 41.0257 29.2191 42.3275 29.2804C43.5107 29.3362 44.2287 29.9054 44.232 30.8269C44.2407 33.3872 44.2425 35.9477 44.2308 38.5081C44.2262 39.4968 43.4158 40.1109 42.1622 40.1176C40.8267 40.1246 40.0619 39.527 40.0128 38.4863C39.9823 37.8472 40.4252 37.0368 39.8084 36.6149C39.1838 36.1878 37.9516 36.4839 36.9908 36.4824C28.2697 36.4692 19.5485 36.4759 10.8274 36.4785C8.16001 36.4794 8.15262 36.4821 8.14153 38.2357C8.13932 38.6141 8.09644 38.9846 7.85731 39.3277C7.46932 39.8854 6.76884 40.1264 5.86064 40.1158C4.99217 40.1058 4.34084 39.8544 3.99573 39.3165C3.78958 38.9951 3.70245 38.6566 3.70338 38.3005C3.71169 34.3976 3.70116 30.4948 3.71169 26.5919C3.71354 25.9296 3.86471 25.2821 4.90328 24.947C6.48914 24.4354 8.06872 25.1318 8.11788 26.4055C8.17489 27.8712 8.12934 29.3387 8.13368 30.8052C8.13747 32.2552 7.93964 32.1019 10.0407 32.1031C19.3633 32.1086 28.6858 32.1049 38.0084 32.1046C40.0137 32.1046 40.0137 32.1044 40.0225 30.7064ZM60.0552 26.1626C58.9983 25.949 58.0177 25.7778 57.061 25.5609C51.7151 24.349 52.1572 19.9705 55.178 18.2409C58.4677 16.3575 64.7129 16.5498 67.6363 18.6715C68.5012 19.2991 68.9447 20.0547 69.2201 20.863C69.354 21.2529 69.1581 21.4874 68.4799 21.4754C67.7666 21.4627 67.0496 21.452 66.3375 21.4798C65.6579 21.5064 65.2605 21.3473 64.9163 20.9364C63.7918 19.5942 61.374 19.0988 59.2591 19.7244C58.0319 20.0874 57.2971 20.8185 57.3236 21.656C57.3516 22.5471 58.2241 23.0077 59.3561 23.2441C61.1064 23.6093 62.91 23.8631 64.6576 24.2328C66.8897 24.7051 68.7608 25.5005 69.4973 27.0881C70.4527 29.1463 69.0925 31.3863 66.0955 32.4113C62.6589 33.5866 59.1339 33.5771 55.7693 32.2706C53.6307 31.4401 52.491 30.1375 52.3727 28.3794C53.6274 28.3794 54.8203 28.3897 56.0122 28.3749C56.5844 28.368 56.6473 28.6624 56.8146 28.8985C58.1339 30.7583 61.4719 31.3807 64.0288 30.2343C65.0348 29.7832 65.5768 29.1512 65.4959 28.3393C65.4169 27.549 64.6282 27.1094 63.6055 26.8137C62.4974 26.4932 61.3117 26.3579 60.0552 26.1626ZM151.756 30.9447C150.406 32.0653 148.855 32.8688 146.729 33.1242C144.594 33.3805 142.721 33.0641 141.057 32.1561C140.913 32.078 140.765 32.0023 140.614 31.9294C140.587 31.9163 140.543 31.9184 140.442 31.9047C140.248 32.1753 140.321 32.473 140.318 32.7575C140.307 34.0987 140.286 35.4404 140.324 36.781C140.339 37.3401 140.098 37.6234 139.177 37.5706C138.544 37.5343 137.899 37.5463 137.263 37.5731C136.462 37.6066 136.114 37.4183 136.117 36.8543C136.138 31.9614 136.135 27.0683 136.121 22.1752C136.12 21.7065 136.345 21.4785 137.091 21.5165C137.539 21.5393 137.992 21.5185 138.442 21.5186C140.148 21.5192 140.148 21.5194 140.444 22.5584C140.546 22.5399 140.677 22.5427 140.741 22.501C144.822 19.8413 151.69 21.5989 153.067 25.2029C153.829 27.1987 153.666 29.1411 151.756 30.9447ZM140.393 25.9355C140.126 26.7414 140.035 27.5456 140.338 28.3603C140.763 29.5039 141.734 30.3724 143.455 30.6924C145.137 31.0051 146.718 30.7733 147.979 29.8779C149.255 28.9724 149.545 27.8759 149.413 26.7041C149.232 25.0979 147.504 23.9012 145.159 23.7195C143.046 23.5557 141.256 24.3559 140.393 25.9355ZM125.542 33.2269C123.016 33.2176 120.725 32.9018 118.838 31.8214C117.291 30.9353 116.509 29.7952 116.445 28.3364C117.769 28.3364 118.994 28.3264 120.218 28.3418C120.655 28.3471 120.686 28.6226 120.795 28.8278C121.971 31.0235 126.165 31.2184 128.339 30.1226C130.161 29.204 129.96 27.5793 127.937 26.8812C126.69 26.4514 125.287 26.3516 123.955 26.1036C123.269 25.9762 122.57 25.8794 121.895 25.7303C118 24.8688 116.851 23.4125 117.122 21.325C117.445 18.8313 119.955 17.2627 123.563 17.034C126.304 16.8602 128.878 17.0542 131.085 18.2717C132.293 18.9387 132.94 19.8135 133.271 20.8102C133.41 21.2313 133.266 21.4958 132.512 21.4725C132.1 21.4598 131.683 21.4531 131.272 21.4743C130.176 21.5304 129.4 21.4284 128.752 20.6447C127.67 19.3348 124.346 19.0811 122.561 20.0174C120.727 20.9794 121.049 22.5788 123.2 23.1677C124.489 23.5207 125.87 23.6592 127.207 23.9012C128.295 24.0983 129.355 24.3399 130.372 24.6673C135.093 26.1864 134.521 30.1268 131.453 31.7856C129.755 32.7038 127.78 33.0971 125.542 33.2269ZM87.1253 21.7461C88.9077 21.2644 90.6412 21.0883 92.4818 21.3283C96.4365 21.8441 97.9103 23.4439 98.1209 25.8219C98.3113 27.9766 98.0184 30.1423 98.2762 32.2999C98.3353 32.7921 98.0027 32.9731 97.2856 32.947C96.686 32.9252 96.0798 32.9127 95.4838 32.9506C94.5016 33.0129 93.8382 32.8604 93.9722 31.9361C92.5159 32.5874 91.1577 33.1225 89.5647 33.1907C85.6081 33.3608 82.059 31.7592 83.1318 28.7109C83.7075 27.0749 85.7273 26.5543 87.9209 26.3061C89.7615 26.0976 91.6308 26.0003 93.4871 25.848C93.6617 25.8337 93.828 25.7778 93.9823 25.7444C93.938 24.5127 93.2182 23.8976 91.555 23.631C90.0295 23.3865 88.4799 23.7778 87.8035 24.6614C87.4801 25.0851 87.0902 25.244 86.4065 25.2056C85.4427 25.1516 84.4624 25.2811 83.3776 25.0948C83.7435 23.5428 84.9456 22.4478 87.1253 21.7461ZM90.0378 28.1487C89.4446 28.1957 88.8357 28.1476 88.2646 28.319C87.0329 28.6885 86.7123 29.6369 87.6067 30.2982C88.5483 30.9941 90.6763 31.1231 92.1168 30.5716C93.6672 29.9774 94.2882 29.0528 93.7929 27.977C92.6231 28.0273 91.4302 28.0786 90.0378 28.1487ZM110.971 29.9286C109.668 32.1578 108.368 34.326 107.141 36.512C106.816 37.0916 106.367 37.3602 105.413 37.2923C104.498 37.2271 103.559 37.3517 102.47 37.1841C103.129 35.9847 103.652 34.8207 104.407 33.7266C104.995 32.8729 104.832 32.1583 104.312 31.3312C102.369 28.2377 100.522 25.1173 98.6402 22.0069C98.5441 21.8479 98.3926 21.6942 98.5977 21.4057C99.7758 21.4057 101.034 21.392 102.291 21.4119C102.878 21.4212 102.929 21.7909 103.078 22.0564C104.302 24.2166 105.508 26.3807 106.725 28.5424C106.853 28.7691 107.007 28.9889 107.254 29.3757L110.409 23.4802C110.459 23.3865 110.513 23.2937 110.562 23.1999C111.561 21.2856 112.543 20.9583 115.811 21.554C114.203 24.3347 112.602 27.1045 110.971 29.9286ZM172.59 32.1002C171.426 31.1965 171.421 30.1302 171.371 29.0969C171.3 27.6581 171.326 26.2163 171.364 24.7764C171.378 24.2237 171.167 23.9643 170.235 23.9745C168.653 23.9914 168.652 23.9569 168.65 22.8979C168.65 22.6992 168.676 22.4986 168.643 22.3022C168.549 21.7332 168.874 21.5021 169.78 21.5097C171.334 21.5226 171.335 21.4907 171.346 20.4323C171.365 18.6704 171.366 18.7014 174.053 18.6665C175.15 18.6522 175.572 18.829 175.541 19.614C175.466 21.4878 175.526 21.5134 178.306 21.5076C179.262 21.5056 179.529 21.7373 179.521 22.3352C179.491 24.3624 179.63 23.9553 177.088 23.9859C175.511 24.0048 175.509 23.9901 175.51 25.06C175.51 26.4258 175.503 27.7917 175.518 29.1574C175.531 30.422 176.355 30.9744 178.225 30.8173C179.402 30.7184 179.651 30.9883 179.602 31.6888C179.494 33.2537 180.016 33.0492 177.399 33.2047C175.658 33.3082 173.966 33.0114 172.59 32.1002ZM73.1785 26.9386C73.1775 26.1938 73.1286 25.5214 73.1905 24.8537C73.2487 24.2212 72.9438 23.9367 71.9255 23.9754C71.4192 23.9946 70.6171 24.1927 70.4379 23.7286C70.1819 23.0653 70.1117 22.3349 70.4979 21.6845C70.6855 21.3667 71.3924 21.509 71.8507 21.5315C72.8468 21.58 73.2136 21.291 73.1794 20.6632C73.1461 20.0467 73.172 19.4289 73.172 18.7555C74.352 18.6205 75.4672 18.6898 76.5769 18.6976C77.0935 18.7014 77.1609 18.9468 77.1628 19.2141C77.1665 19.6858 77.2348 20.1623 77.1563 20.628C77.0297 21.3732 77.5185 21.623 78.5672 21.5216C78.6042 21.5179 78.643 21.521 78.68 21.5212C81.403 21.5264 81.6174 21.7039 81.2293 23.5207C81.1544 23.8716 80.905 23.9881 80.4208 23.9865C79.7453 23.9841 79.0662 24.0201 78.3954 23.9844C77.4852 23.9364 77.1249 24.1415 77.1526 24.7776C77.2136 26.1666 77.1637 27.5577 77.1739 28.9479C77.184 30.3696 78.1829 30.9186 80.3275 30.7002C80.5437 30.6781 80.7654 30.6763 81.0731 30.6608C81.3623 31.3335 81.208 31.9985 81.2025 32.654C81.1997 32.966 80.8218 33.0795 80.4282 33.0847C79.4173 33.0978 78.3815 33.1691 77.3965 33.0587C74.5857 32.744 73.1923 31.5899 73.1803 29.6944C73.1738 28.8007 73.1785 27.9069 73.1785 26.9386ZM155.561 17.2078C156.666 16.9751 157.718 17.0965 158.762 17.0836C159.221 17.0778 159.439 17.2585 159.453 17.5534C159.461 17.7272 159.468 17.901 159.468 18.075C159.467 22.72 159.448 27.3651 159.484 32.0102C159.489 32.7121 159.189 32.9764 158.084 32.9525C154.977 32.8856 155.378 33.2142 155.375 31.1814C155.367 26.8593 155.369 22.5371 155.375 18.2151C155.375 17.8955 155.29 17.568 155.561 17.2078ZM162.74 27.5352C162.74 25.6974 162.766 23.934 162.727 22.1713C162.715 21.6019 162.982 21.387 163.879 21.3798C166.725 21.3566 166.725 21.3357 166.727 23.1845C166.729 26.1147 166.7 29.0452 166.754 31.9751C166.767 32.6949 166.528 32.9904 165.329 32.957C162.313 32.873 162.781 33.1945 162.745 31.2602C162.722 30.0435 162.74 28.8266 162.74 27.5352Z" fill="#19386D"/>
<path d="M16.9346 29.7889C16.8805 31.0844 16.3205 31.4617 14.5148 31.4692C13.4286 31.4737 12.3401 31.494 11.2567 31.4572C9.79914 31.4075 9.2963 30.918 9.33917 29.6828C9.3716 28.7585 9.92249 28.3913 11.3385 28.3779C12.4619 28.3675 13.5861 28.3693 14.7096 28.3779C16.2811 28.3902 16.7445 28.6757 16.9346 29.7889ZM166.503 17.3376C167.334 18.1267 167.428 18.9366 166.786 19.5212C166.148 20.1016 165.238 20.3001 164.211 20.1792C162.654 19.9957 161.798 19.0988 162.21 18.1539C162.648 17.1478 164.058 16.6494 165.546 16.9906C165.858 17.0625 166.14 17.1929 166.503 17.3376Z" fill="#19386D"/>
<path d="M27.3292 12.4856C27.8194 13.7356 27.211 14.7978 25.7749 15.3006C24.4841 15.7526 22.7421 15.5398 21.7518 14.8093C20.6557 14.001 20.607 12.8382 21.5072 11.9109C22.6863 10.6964 26.4138 10.7063 27.3292 12.4856Z" fill="#2196F3"/>
</g>
</g>
<defs>
<clipPath id="clip0_2052_2125">
<rect width="186" height="41" fill="white"/>
</clipPath>
</defs>
</svg>
